<?xml version="1.0" standalone="no"?>
<!DOCTYPE svg PUBLIC "-//W3C//DTD SVG 20010904//EN"
 "http://www.w3.org/TR/2001/REC-SVG-20010904/DTD/svg10.dtd">
<svg version="1.0" xmlns="http://www.w3.org/2000/svg"
 width="500.000000pt" height="500.000000pt" viewBox="0 0 500.000000 500.000000"
 preserveAspectRatio="xMidYMid meet">
<metadata>
Created by potrace 1.14, written by Peter Selinger 2001-2017
</metadata>
<g transform="translate(0.000000,500.000000) scale(0.100000,-0.100000)"
fill="#000000" stroke="none">
<path d="M0 2500 l0 -2500 2500 0 2500 0 0 2500 0 2500 -2500 0 -2500 0 0
-2500z m2830 2022 c441 -74 831 -278 1140 -598 533 -551 713 -1336 474 -2064
-201 -614 -690 -1103 -1304 -1304 -728 -239 -1513 -59 -2064 474 -325 314
-530 710 -602 1165 -25 153 -25 460 -1 610 62 376 206 702 434 985 72 89 254
267 338 331 317 243 668 378 1090 423 89 9 384 -4 495 -22z"/>
<path d="M1650 2511 l0 -1361 90 0 90 0 0 714 0 714 153 3 c149 4 154 5 219
37 74 36 132 95 170 170 23 47 23 48 23 432 l0 385 -28 60 c-36 76 -110 147
-185 176 -52 21 -79 23 -294 27 l-238 4 0 -1361z m480 1157 c30 -15 53 -37 67
-63 22 -39 23 -47 23 -378 0 -377 -1 -384 -66 -433 -37 -28 -40 -29 -181 -32
l-143 -3 0 465 0 466 128 0 c113 0 133 -3 172 -22z"/>
<path d="M2688 3864 c-5 -4 -8 -616 -8 -1361 l0 -1353 95 0 95 0 0 715 0 715
123 0 c78 0 144 6 182 15 121 32 209 116 247 237 16 53 18 97 18 393 0 304 -2
338 -20 396 -32 102 -113 189 -211 226 -35 12 -94 17 -279 20 -129 3 -238 2
-242 -3z m459 -185 c42 -15 92 -68 103 -109 6 -19 10 -176 10 -356 0 -315 0
-322 -23 -365 -38 -72 -83 -89 -239 -89 l-128 0 0 465 0 465 124 0 c69 0 137
-5 153 -11z"/>
</g>
</svg>
