<?xml version="1.0" standalone="no"?>
<!DOCTYPE svg PUBLIC "-//W3C//DTD SVG 20010904//EN"
 "http://www.w3.org/TR/2001/REC-SVG-20010904/DTD/svg10.dtd">
<svg version="1.0" xmlns="http://www.w3.org/2000/svg"
 width="300.000000pt" height="300.000000pt" viewBox="0 0 300.000000 300.000000"
 preserveAspectRatio="xMidYMid meet">
<metadata>
Created by potrace 1.14, written by Peter Selinger 2001-2017
</metadata>
<g transform="translate(0.000000,300.000000) scale(0.100000,-0.100000)"
fill="#000000" stroke="none">
<path d="M0 1500 l0 -1500 1500 0 1500 0 0 1500 0 1500 -1500 0 -1500 0 0
-1500z m1710 1055 c495 -99 874 -480 945 -952 19 -124 19 -202 0 -327 -106
-700 -863 -1142 -1571 -915 -331 106 -580 322 -723 629 -105 227 -127 498 -60
740 99 357 400 665 764 783 75 24 195 51 275 61 64 8 294 -4 370 -19z"/>
<path d="M1504 2212 c-134 -63 -135 -252 0 -316 86 -41 194 1 232 91 61 142
-92 290 -232 225z"/>
<path d="M1121 2184 c-105 -54 -119 -219 -23 -292 48 -37 131 -38 181 -3 124
89 72 296 -78 308 -30 2 -58 -2 -80 -13z"/>
<path d="M2085 2006 c-136 -59 -135 -265 1 -322 47 -20 84 -17 134 9 52 27 90
90 90 148 0 123 -120 211 -225 165z"/>
<path d="M845 1886 c-39 -17 -70 -52 -90 -98 -29 -72 -12 -151 46 -203 69 -62
158 -57 222 14 120 133 -19 358 -178 287z"/>
<path d="M1275 1821 c-90 -56 -121 -172 -69 -260 23 -39 91 -81 131 -81 49 0
107 34 134 77 33 52 34 152 2 203 -44 71 -137 99 -198 61z"/>
<path d="M1834 1662 c-134 -63 -135 -252 0 -316 86 -41 194 1 232 91 61 142
-92 290 -232 225z"/>
<path d="M750 1448 c-65 -45 -86 -122 -51 -188 43 -83 140 -104 202 -44 74 71
58 193 -31 239 -41 21 -82 19 -120 -7z"/>
<path d="M1405 1366 c-101 -44 -125 -178 -46 -257 65 -65 159 -63 220 6 109
125 -24 316 -174 251z"/>
<path d="M2055 1276 c-42 -18 -93 -79 -101 -121 -14 -77 31 -161 103 -191 135
-57 276 85 219 219 -37 87 -138 129 -221 93z"/>
<path d="M995 1236 c-42 -19 -82 -62 -96 -103 -25 -77 14 -172 85 -204 54 -25
93 -24 146 4 52 26 90 89 90 147 0 114 -124 200 -225 156z"/>
<path d="M1615 1066 c-101 -44 -125 -178 -46 -257 65 -65 157 -65 222 0 124
124 -15 327 -176 257z"/>
<path d="M1285 846 c-102 -44 -124 -181 -41 -254 140 -123 338 67 219 209 -47
55 -116 72 -178 45z"/>
</g>
</svg>
