<?xml version="1.0" standalone="no"?>
<!DOCTYPE svg PUBLIC "-//W3C//DTD SVG 20010904//EN"
 "http://www.w3.org/TR/2001/REC-SVG-20010904/DTD/svg10.dtd">
<svg version="1.0" xmlns="http://www.w3.org/2000/svg"
 width="500.000000pt" height="500.000000pt" viewBox="0 0 500.000000 500.000000"
 preserveAspectRatio="xMidYMid meet">
<metadata>
Created by potrace 1.14, written by Peter Selinger 2001-2017
</metadata>
<g transform="translate(0.000000,500.000000) scale(0.100000,-0.100000)"
fill="#000000" stroke="none">
<path d="M1925 4754 c-408 -63 -760 -238 -1078 -535 l-68 -64 755 -755 756
-755 0 1063 0 1062 -137 -1 c-76 -1 -178 -7 -228 -15z m225 -220 l0 -116 -27
6 c-16 4 -68 26 -117 49 -122 57 -172 57 -294 -3 -74 -36 -102 -58 -189 -147
-120 -122 -162 -144 -306 -168 -56 -9 -119 -26 -146 -40 l-48 -24 -28 29 c-28
29 -28 30 -9 51 37 42 188 154 289 214 239 144 501 229 785 254 47 5 86 9 88
10 1 0 2 -51 2 -115z m-190 -183 c45 -22 106 -45 136 -52 l54 -12 0 -661 0
-661 -514 514 c-283 283 -513 518 -510 522 2 4 28 12 57 17 28 5 81 15 117 21
117 22 183 61 290 170 105 108 139 135 208 162 64 25 70 24 162 -20z"/>
<path d="M1872 4160 c-165 -39 -206 -261 -65 -350 80 -51 157 -48 232 8 82 61
94 207 23 285 -40 45 -130 71 -190 57z m96 -147 c29 -39 -1 -113 -47 -113 -32
0 -71 39 -71 70 0 59 82 89 118 43z"/>
<path d="M1477 3902 c-51 -56 17 -138 79 -97 29 18 33 74 8 99 -21 22 -67 20
-87 -2z"/>
<path d="M1848 3594 c-49 -25 -69 -41 -74 -59 -7 -30 16 -70 46 -80 23 -7 133
40 163 69 38 38 9 107 -44 106 -13 -1 -54 -17 -91 -36z"/>
<path d="M2437 4163 c-4 -3 -7 -412 -7 -907 l0 -901 -641 640 -640 640 -76
-80 c-302 -319 -483 -711 -534 -1155 -15 -130 -6 -411 16 -533 53 -291 150
-533 310 -772 456 -682 1298 -1013 2092 -820 512 124 961 454 1231 906 411
685 365 1555 -116 2198 -70 94 -223 253 -322 336 -269 224 -623 381 -970 429
-122 17 -334 29 -343 19z m253 -138 c347 -27 749 -202 1025 -448 l40 -36 -26
-26 -27 -27 -54 20 c-30 11 -88 25 -129 31 -139 19 -187 44 -328 171 -113 101
-191 155 -253 176 -70 23 -195 16 -263 -15 -27 -13 -65 -29 -82 -37 l-33 -14
0 110 0 110 28 -5 c15 -2 61 -7 102 -10z m255 -284 c28 -16 75 -52 105 -80 49
-46 51 -50 21 -35 -24 11 -52 15 -92 12 -105 -8 -179 -87 -179 -191 0 -83 38
-143 115 -178 162 -75 330 94 256 258 l-19 42 45 -35 c100 -76 173 -106 308
-124 44 -6 83 -14 87 -18 4 -4 -226 -241 -512 -527 l-520 -520 0 673 c0 531 3
672 13 672 6 0 53 18 102 40 119 52 194 55 270 11z m99 -253 c33 -47 4 -108
-51 -108 -55 0 -85 70 -46 112 23 26 78 24 97 -4z m-1849 -112 c-18 -29 -51
-137 -66 -216 -18 -102 -57 -164 -175 -281 -58 -57 -114 -118 -125 -135 -58
-94 -65 -207 -23 -349 44 -150 51 -135 -56 -135 l-92 0 7 88 c16 211 84 457
178 652 59 121 182 309 257 393 l53 58 28 -27 c25 -24 26 -29 14 -48z m2777
-81 c211 -282 328 -594 362 -967 l7 -68 -91 0 c-49 0 -90 2 -90 4 0 3 7 35 15
71 9 37 16 108 16 159 0 161 -50 269 -177 381 -78 69 -97 106 -143 280 -18 66
-43 147 -56 180 l-24 59 27 29 27 29 34 -39 c18 -21 60 -74 93 -118z m-2147
-515 l520 -520 -685 0 -685 0 -17 68 c-10 37 -24 92 -33 122 -20 72 -19 162 1
203 9 18 70 87 135 154 137 140 167 191 198 343 18 86 36 150 43 150 2 0 237
-234 523 -520z m1889 458 c8 -29 27 -98 41 -153 44 -160 73 -212 179 -317 73
-73 96 -104 109 -142 22 -64 22 -193 0 -291 l-16 -75 -686 0 -686 0 515 515
c283 283 518 515 522 515 4 0 14 -24 22 -52z m-2864 -1122 c0 -7 -11 -73 -25
-146 -51 -272 -30 -340 146 -468 105 -76 135 -133 168 -320 10 -60 29 -128 41
-152 l22 -43 -26 -25 -25 -26 -21 25 c-266 310 -411 632 -459 1019 -6 46 -11
99 -11 117 l0 33 95 0 c74 0 95 -3 95 -14z m975 -506 c-286 -286 -523 -520
-527 -520 -9 0 -24 60 -33 130 -11 88 -52 203 -94 267 -28 41 -64 76 -121 117
-134 95 -138 112 -93 368 l28 158 680 0 680 0 -520 -520z m2181 483 c4 -21 22
-87 40 -146 60 -192 47 -233 -138 -424 -72 -74 -133 -147 -146 -174 -12 -25
-29 -92 -37 -150 -9 -57 -17 -107 -18 -112 -1 -4 -238 229 -527 518 l-525 525
672 0 672 0 7 -37z m328 -30 c-29 -325 -115 -587 -276 -847 -51 -83 -161 -228
-195 -259 -19 -16 -21 -16 -38 3 -18 19 -18 23 -2 73 9 29 21 88 27 132 6 44
16 95 21 113 7 20 61 85 139 167 164 172 195 228 195 355 0 68 -6 103 -32 180
-17 52 -34 107 -37 123 l-6 27 105 0 106 0 -7 -67z m-1904 -342 l0 -309 -35
-12 c-77 -26 -135 -104 -135 -185 0 -81 58 -159 135 -185 l35 -12 0 -161 -1
-162 -76 -35 c-64 -29 -91 -36 -159 -39 -124 -5 -164 12 -277 116 -155 144
-278 213 -380 213 -46 0 -147 26 -147 38 0 6 1031 1042 1037 1042 2 0 3 -139
3 -309z m664 -215 c284 -289 512 -527 508 -530 -5 -3 -56 -12 -113 -21 -218
-32 -300 -73 -380 -191 -51 -77 -109 -124 -180 -149 -62 -22 -82 -19 -231 32
l-138 48 0 176 0 176 26 24 c83 78 86 208 5 283 l-31 30 0 323 c0 178 4 323 8
323 5 0 241 -236 526 -524z m-592 -243 c22 -20 23 -70 1 -95 -23 -26 -78 -24
-97 4 -33 47 -7 108 46 108 17 0 40 -7 50 -17z m-1156 -399 c34 -17 89 -31
154 -40 55 -8 118 -23 139 -33 49 -25 129 -88 216 -171 111 -104 202 -137 355
-127 75 4 111 13 203 52 16 7 17 -2 17 -95 l0 -103 -77 7 c-397 35 -774 195
-1067 453 -41 37 -42 40 -19 65 20 23 16 23 79 -8z m2388 -3 c17 -18 14 -21
-56 -82 -272 -234 -662 -395 -1030 -425 l-88 -7 0 106 0 106 118 -42 c140 -49
221 -54 312 -19 70 27 162 100 203 159 84 122 115 139 317 171 69 11 141 27
160 35 46 20 44 20 64 -2z"/>
<path d="M2707 3112 c-45 -46 -57 -64 -57 -90 0 -38 37 -68 72 -59 13 4 47 31
77 61 60 61 72 106 36 132 -37 27 -68 17 -128 -44z"/>
<path d="M1385 2716 c-39 -18 -80 -62 -99 -108 -61 -146 78 -300 232 -259 213
58 173 382 -47 381 -31 -1 -69 -7 -86 -14z m129 -132 c38 -37 4 -114 -49 -114
-54 0 -85 71 -48 112 20 22 76 24 97 2z"/>
<path d="M1785 2535 c-33 -32 -32 -46 12 -117 39 -63 66 -88 95 -88 26 0 58
36 58 64 0 33 -69 142 -98 156 -33 14 -40 13 -67 -15z"/>
<path d="M3465 2861 c-55 -14 -95 -41 -123 -83 -23 -35 -27 -52 -27 -108 0
-57 4 -73 28 -107 80 -115 249 -116 324 -1 24 35 28 52 28 108 0 56 -4 73 -28
108 -42 64 -132 101 -202 83z m85 -141 c57 -57 -15 -150 -79 -102 -14 10 -28
27 -29 36 -13 66 62 112 108 66z"/>
<path d="M3119 2596 c-13 -6 -28 -24 -33 -38 -8 -24 -4 -36 34 -92 49 -72 85
-95 119 -77 27 15 44 47 36 71 -11 35 -92 137 -113 142 -11 3 -31 0 -43 -6z"/>
<path d="M3840 2540 c-39 -39 -11 -110 44 -110 32 0 69 45 60 74 -8 27 -41 56
-65 56 -10 0 -28 -9 -39 -20z"/>
<path d="M1804 1924 c-20 -19 -24 -31 -19 -52 7 -32 31 -52 60 -52 29 0 53 20
60 52 5 21 1 33 -19 52 -14 15 -32 26 -41 26 -9 0 -27 -11 -41 -26z"/>
<path d="M1368 1765 c-89 -59 -102 -102 -43 -141 31 -20 49 -14 130 46 48 35
55 45 55 75 0 35 -28 65 -60 65 -8 0 -45 -20 -82 -45z"/>
<path d="M3064 2046 c-16 -12 -20 -29 -22 -104 -4 -84 -3 -90 19 -106 34 -23
65 -20 88 10 29 37 31 172 3 197 -23 21 -62 22 -88 3z"/>
<path d="M3826 1968 c-41 -58 14 -130 75 -98 38 21 42 89 6 112 -24 15 -66 8
-81 -14z"/>
<path d="M3475 1921 c-175 -79 -138 -347 49 -368 66 -8 112 4 153 40 171 150
4 422 -202 328z m125 -131 c41 -41 13 -112 -45 -112 -37 0 -65 29 -65 68 0 57
69 85 110 44z"/>
<path d="M2070 1520 c-38 -38 -14 -110 38 -110 49 0 79 41 62 84 -17 46 -67
59 -100 26z"/>
<path d="M1876 1075 c-22 -22 -29 -52 -16 -74 25 -48 93 -51 110 -5 14 37 12
52 -10 74 -24 24 -63 26 -84 5z"/>
<path d="M2842 1424 c-34 -23 -27 -83 11 -104 24 -13 30 -13 55 0 37 21 44 81
10 104 -12 9 -29 16 -38 16 -9 0 -26 -7 -38 -16z"/>
<path d="M2831 1183 c-23 -28 -21 -56 5 -83 19 -20 150 -25 184 -8 36 19 48
60 26 92 -16 25 -21 26 -106 26 -84 0 -90 -1 -109 -27z"/>
</g>
</svg>
